<?xml version="1.0" encoding="UTF-8" standalone="no"?>
<!-- Created with Inkscape (http://www.inkscape.org/) -->

<svg
   xmlns:dc="http://purl.org/dc/elements/1.1/"
   xmlns:cc="http://creativecommons.org/ns#"
   xmlns:rdf="http://www.w3.org/1999/02/22-rdf-syntax-ns#"
   xmlns:svg="http://www.w3.org/2000/svg"
   xmlns="http://www.w3.org/2000/svg"
   xmlns:sodipodi="http://sodipodi.sourceforge.net/DTD/sodipodi-0.dtd"
   xmlns:inkscape="http://www.inkscape.org/namespaces/inkscape"
   width="50"
   height="50"
   id="svg2"
   version="1.1"
   inkscape:version="0.48.4 r9939"
   inkscape:export-filename="/home/kluck/repos/aikido-vernon.github.io/app/images/background.png"
   inkscape:export-xdpi="18"
   inkscape:export-ydpi="18"
   sodipodi:docname="Nouveau document 1">
  <defs
     id="defs4" />
  <sodipodi:namedview
     id="base"
     pagecolor="#ffffff"
     bordercolor="#666666"
     borderopacity="1.0"
     inkscape:pageopacity="0.0"
     inkscape:pageshadow="2"
     inkscape:zoom="11.2"
     inkscape:cx="17.314204"
     inkscape:cy="17.898931"
     inkscape:document-units="px"
     inkscape:current-layer="layer1"
     showgrid="true"
     inkscape:snap-object-midpoints="false"
     inkscape:snap-center="false"
     inkscape:object-paths="true"
     inkscape:snap-intersection-paths="true"
     inkscape:snap-bbox="true"
     fit-margin-top="0"
     fit-margin-left="0"
     fit-margin-right="0"
     fit-margin-bottom="0"
     inkscape:snap-bbox-midpoints="true"
     inkscape:window-width="1916"
     inkscape:window-height="1178"
     inkscape:window-x="0"
     inkscape:window-y="18"
     inkscape:window-maximized="0">
    <inkscape:grid
       type="xygrid"
       id="grid2985"
       empspacing="5"
       visible="true"
       enabled="true"
       snapvisiblegridlinesonly="true"
       originx="-190px"
       originy="-850px" />
  </sodipodi:namedview>
  <metadata
     id="metadata7">
    <rdf:RDF>
      <cc:Work
         rdf:about="">
        <dc:format>image/svg+xml</dc:format>
        <dc:type
           rdf:resource="http://purl.org/dc/dcmitype/StillImage" />
        <dc:title></dc:title>
      </cc:Work>
    </rdf:RDF>
  </metadata>
  <g
     inkscape:label="Calque 1"
     inkscape:groupmode="layer"
     id="layer1"
     transform="translate(-190,-152.36218)">
    <path
       inkscape:connector-curvature="0"
       id="path2989-7"
       d="m 211.63869,177.36223 c 0,4.9706 -4.02945,9.00005 -9.00005,9.00005 -4.9706,0 -9.00005,-4.02945 -9.00005,-9.00005 0,-4.97058 4.02945,-9.00005 9.00005,-9.00005 4.9706,0 9.00005,4.02947 9.00005,9.00005 z"
       style="fill:#f2f2f2" />
    <path
       inkscape:connector-curvature="0"
       id="path2989-7-0"
       d="m 236.77733,177.23596 c 0,4.9706 -4.02945,9.00005 -9.00005,9.00005 -4.9706,0 -9.00005,-4.02945 -9.00005,-9.00005 0,-4.97058 4.02945,-9.00005 9.00005,-9.00005 4.9706,0 9.00005,4.02947 9.00005,9.00005 z"
       style="fill:#f2f2f2" />
    <path
       inkscape:connector-curvature="0"
       id="path2989-7-9"
       d="m 199.00005,152.36218 c 0,4.9706 -4.02945,9.00005 -9.00005,9.00005 -4.9706,0 -9.00005,-4.02945 -9.00005,-9.00005 0,-4.97058 4.02945,-9.00005 9.00005,-9.00005 4.9706,0 9.00005,4.02947 9.00005,9.00005 z"
       style="fill:#f2f2f2" />
    <path
       inkscape:connector-curvature="0"
       id="path2989-7-9-9"
       d="m 224.2813,152.36218 c 0,4.9706 -4.02945,9.00005 -9.00005,9.00005 -4.9706,0 -9.00005,-4.02945 -9.00005,-9.00005 0,-4.97058 4.02945,-9.00005 9.00005,-9.00005 4.9706,0 9.00005,4.02947 9.00005,9.00005 z"
       style="fill:#f2f2f2" />
    <path
       inkscape:connector-curvature="0"
       id="path2989-7-9-9-1"
       d="m 249.00005,152.36218 c 0,4.9706 -4.02945,9.00005 -9.00005,9.00005 -4.9706,0 -9.00005,-4.02945 -9.00005,-9.00005 0,-4.97058 4.02945,-9.00005 9.00005,-9.00005 4.9706,0 9.00005,4.02947 9.00005,9.00005 z"
       style="fill:#f2f2f2" />
    <path
       inkscape:connector-curvature="0"
       id="path2989-7-97"
       d="m 199.00005,202.36218 c 0,4.9706 -4.02945,9.00005 -9.00005,9.00005 -4.9706,0 -9.00005,-4.02945 -9.00005,-9.00005 0,-4.97058 4.02945,-9.00005 9.00005,-9.00005 4.9706,0 9.00005,4.02947 9.00005,9.00005 z"
       style="fill:#f2f2f2" />
    <path
       inkscape:connector-curvature="0"
       id="path2989-7-98"
       d="m 224.00005,202.36218 c 0,4.9706 -4.02945,9.00005 -9.00005,9.00005 -4.9706,0 -9.00005,-4.02945 -9.00005,-9.00005 0,-4.97058 4.02945,-9.00005 9.00005,-9.00005 4.9706,0 9.00005,4.02947 9.00005,9.00005 z"
       style="fill:#f2f2f2" />
    <path
       inkscape:connector-curvature="0"
       id="path2989-7-5"
       d="m 249.00005,202.36218 c 0,4.9706 -4.02945,9.00005 -9.00005,9.00005 -4.9706,0 -9.00005,-4.02945 -9.00005,-9.00005 0,-4.97058 4.02945,-9.00005 9.00005,-9.00005 4.9706,0 9.00005,4.02947 9.00005,9.00005 z"
       style="fill:#f2f2f2" />
  </g>
</svg>
