<?xml version="1.0" encoding="UTF-8" standalone="no"?>
<!-- Created with Inkscape (http://www.inkscape.org/) -->

<svg
   xmlns:dc="http://purl.org/dc/elements/1.1/"
   xmlns:cc="http://creativecommons.org/ns#"
   xmlns:rdf="http://www.w3.org/1999/02/22-rdf-syntax-ns#"
   xmlns:svg="http://www.w3.org/2000/svg"
   xmlns="http://www.w3.org/2000/svg"
   xmlns:sodipodi="http://sodipodi.sourceforge.net/DTD/sodipodi-0.dtd"
   xmlns:inkscape="http://www.inkscape.org/namespaces/inkscape"
   width="225.88869"
   height="438.54254"
   id="svg2"
   version="1.1"
   inkscape:version="0.48.4 r9939"
   sodipodi:docname="Nouveau document 1">
  <defs
     id="defs4" />
  <sodipodi:namedview
     id="base"
     pagecolor="#ffffff"
     bordercolor="#666666"
     borderopacity="1.0"
     inkscape:pageopacity="0.0"
     inkscape:pageshadow="2"
     inkscape:zoom="1"
     inkscape:cx="31.189788"
     inkscape:cy="128.49459"
     inkscape:document-units="px"
     inkscape:current-layer="layer1"
     showgrid="false"
     fit-margin-top="0"
     fit-margin-left="0"
     fit-margin-right="0"
     fit-margin-bottom="0"
     inkscape:window-width="1916"
     inkscape:window-height="1178"
     inkscape:window-x="0"
     inkscape:window-y="18"
     inkscape:window-maximized="0" />
  <metadata
     id="metadata7">
    <rdf:RDF>
      <cc:Work
         rdf:about="">
        <dc:format>image/svg+xml</dc:format>
        <dc:type
           rdf:resource="http://purl.org/dc/dcmitype/StillImage" />
        <dc:title></dc:title>
      </cc:Work>
    </rdf:RDF>
  </metadata>
  <g
     inkscape:label="Calque 1"
     inkscape:groupmode="layer"
     id="layer1"
     transform="translate(-293.39466,-129.44576)">
    <g
       id="g3025"
       transform="translate(-92.001925,-73.341733)"
       style="fill:#000000">
      <path
         style="fill:#000000"
         d="m 410.71875,181.78125 c -0.26162,0.0134 -0.52032,0.0202 -0.78125,0.0625 -1.83675,0.29806 -4.04107,1.12039 -4.875,1.8125 -1.75961,1.46035 -6.2981,11.32698 -6.3125,13.71875 -0.0332,5.52825 -11.92348,22.79412 -31.4375,45.625 -10.91784,12.77357 -23.59295,29.22931 -26.78125,32.84375 5.52428,-3.58446 8.04151,-4.8237 18.21875,-13.375 3.025,-2.54172 9.31249,-7.26915 13.96875,-10.53125 4.65627,-3.2621 14.96623,-12.40329 22.90625,-20.3125 l 14.4375,-14.375 6.15625,0.5625 c 12.13677,1.13335 19.97055,5.12594 34,17.3125 7.58093,6.58511 9.35252,8.58804 17.5625,20 3.02672,4.20719 4.02712,4.91255 7.375,5.1875 2.29289,0.18831 6.3284,-0.59159 9.84375,-1.90625 5.76393,-2.15556 6.70096,-2.19105 30.09375,-1.53125 13.28582,0.37474 26.18125,1.06733 28.65625,1.5625 5.7291,1.14621 7.66531,-0.37763 2.9375,-2.3125 -1.88488,-0.77139 -6.54313,-1.91483 -10.34375,-2.5625 -3.80062,-0.64768 -8.18324,-1.84605 -9.75,-2.65625 -1.56676,-0.8102 -10.83613,-3.53119 -20.59375,-6.03125 -17.84183,-4.57136 -25.4437,-6.87354 -32.65625,-9.90625 -6.0823,-2.55747 -34.20094,-21.86939 -37.34375,-25.65625 -0.66705,-0.80375 -2.3827,-4.5996 -3.8125,-8.40625 -3.36793,-8.96669 -4.86209,-10.60681 -9.375,-10.21875 -1.88522,0.16211 -2.09197,2.54679 -3.8125,1.875 -1.35894,-0.53061 0.0547,-3.26431 -0.0625,-4.28125 -0.42858,-3.71996 -4.29444,-6.70092 -8.21875,-6.5 z m 17.3125,56.03125 c -5.94203,-0.008 -15.0815,1.94624 -23.3125,5.21875 -4.6944,1.86642 -10.43857,5.49901 -13.375,5.625 -5.70642,0.24484 -6.09768,0.8754 -7,2.59375 -1.26245,2.40417 0.0454,5.71882 3.90625,9.8125 3.21091,3.40455 3.79407,3.64341 7.25,2.96875 2.06656,-0.40343 3.74434,-0.50862 4.96875,-1.625 3.03572,-2.76785 5.96448,-6.82568 9,-9.59375 3.67101,-3.34756 9.41061,-4.2692 9.59375,-3.875 0.21872,0.47079 -5.48482,4.75243 -5.84375,4.9375 -2.50567,1.29194 -7.89009,6.88047 -11.625,10.15625 8.13796,-3.74409 13.96471,-7.57934 17.71875,-8.90625 5.60831,-1.98232 8.18618,-2.46303 10.25,-2.78125 5.90305,-0.9102 7.90625,-2.6747 7.90625,-5.4375 0,-4.22134 -0.90827,-5.80402 -2.21875,-7.03125 -0.88664,-0.83032 -5.23807,-2.0595 -7.21875,-2.0625 z m 11.28125,21.8125 c -3.51863,0.11932 -8.56374,1.16395 -17.09375,3.3125 -10.75936,2.71009 -15.65883,4.54563 -22.75,8.5 -5.65791,3.15512 -10.25728,5.0625 -12.28125,5.0625 -2.37419,0 -3.91064,0.80816 -5.78125,3.03125 -3.87549,4.60575 -4.36025,9.18294 -1.5625,15.15625 2.23106,4.7634 6.91772,9.8125 9.09375,9.8125 0.55855,0 2.16408,0.9 3.5625,2 3.69901,2.90964 8.51733,2.58867 12.46875,-0.84375 1.80664,-1.56934 4.3604,-3.41251 5.65625,-4.09375 3.42623,-1.80119 10.45398,-1.65527 13.21875,0.28125 2.94595,2.06343 6.14985,2.09983 9.96875,0.125 2.42419,-1.2536 2.9375,-2.15375 2.9375,-5.0625 0,-1.94704 -0.43645,-4.34914 -0.96875,-5.34375 -1.3776,-2.57406 1.56088,-4.86212 12.28125,-9.625 3.90245,-1.7338 6.6875,-5.71486 6.6875,-9.5 0,-2.76276 -5.3453,-9.56267 -9.03125,-11.46875 -1.84441,-0.95378 -3.66953,-1.43655 -6.40625,-1.34375 z M 424,272.1875 c 2.99055,-0.053 5.24071,0.22744 5.46875,0.90625 0.20165,0.60026 -1.13325,3.28077 -2.9375,5.96875 -2.92713,4.36084 -3.9275,5.05877 -9.28125,6.53125 -15.4813,4.25794 -20.22857,4.03576 -19,-0.9375 0.93321,-3.7776 4.99755,-7.70967 10.375,-10 3.31471,-1.41178 10.39076,-2.3805 15.375,-2.46875 z m 13.28125,126.875 c 5.11176,29.79673 9.21977,39.2793 22.40625,51.71875 3.73097,3.51961 9.56979,8.16285 13,10.3125 3.43021,2.14965 8.34189,5.28695 10.90625,6.96875 2.56436,1.68181 9.83126,5.28181 16.15625,8 6.32499,2.7182 15.09999,6.81774 19.5,9.125 4.40001,2.30726 8.5422,4.2198 9.1875,4.25 1.12205,0.0526 6.96231,-4.30804 8.625,-6.4375 1.57815,-2.02119 0.008,-9.59943 -2.5625,-12.34375 -4.26546,-4.55457 -6.06034,-8.91715 -12.25,-30.15625 -2.08195,-7.14396 -5.68352,-16.745 -6.46875,-16.75 -0.49621,5.05696 0.55813,11.78268 0.84375,17.21875 -0.0593,0.33365 -2.07672,-6.94316 -2.125,-6.625 -0.56812,3.74349 -0.36297,6.57588 0.65625,12.34375 2.22343,12.58265 2.75231,18.61123 1.71875,19.25 -2.61641,1.61703 -32.13828,-11.55194 -43.46875,-19.375 -6.97632,-4.81677 -16.08809,-14.56954 -19.34375,-20.71875 -5.40106,-10.20142 -9.27325,-27.72674 -9.28125,-42 l -0.0312,-7.15625 4.21875,-1.34375 c 3.71255,-1.18325 4.34796,-1.80533 5.15625,-5.25 1.15353,-4.916 -1.00859,-8.94639 -6,-12.03125 -2.98156,-1.84271 -4.24828,-1.76736 -7.375,-1.3125 -1.1732,0.17067 -2.57725,1.07824 -3.84375,1.875 -7.39941,4.65497 -18.89267,9.77991 -19.125,9.84375 -0.42038,0.11551 16.67668,-9.26085 17.4375,-11.15625 0.46261,-1.15246 0.40205,-2.92891 0.25,-4.0625 -0.42605,-3.17644 -1.47359,-5.07016 -4.125,-7.5 -3.83901,-3.51819 -6.68318,-3.98548 -10.59375,-1.75 -2.05937,1.17724 -11.70122,6.00314 -12.59375,5.6875 -0.41512,-0.1468 6.06078,-5.1729 6.90625,-6.03125 1.02515,-1.04075 4.79207,-2.78804 8.9375,-4.28125 1.09856,-0.39571 2.20291,-1.52052 3.3125,-1.71875 1.32285,-0.23633 1.78234,0.90199 3.03125,1.25 1.03613,0.28871 2.8896,0.44086 3.625,0.40625 3.23716,-0.15235 5.30782,-0.49532 7.25,-2.4375 2.09988,-2.09987 1.92809,-8.2432 -0.34375,-11.96875 -1.03289,-1.69383 -2.86606,-2.89642 -4.625,-3.625 -1.0715,-0.44383 -2.41663,-1.04852 -3.875,-1.125 -0.1823,-0.01 -0.38306,-0.006 -0.59375,0 -1.47486,0.0437 -3.75201,0.51601 -8.1875,1.84375 -4.9928,1.49457 -11.32372,3.72216 -13.96875,5.0625 -3.74174,1.89608 -6.24059,4.55792 -7.78125,4.0625 -0.91064,-0.29283 -1.68898,-2.83932 -3.03125,-3.96875 -3.10256,-2.61063 -7.78115,-4.64725 -12.21875,-4.65625 -3.32523,-0.007 -4.1533,2.13367 -4.25,11 -0.0639,5.8568 -0.6523,7.58849 -5.71875,17.5 -3.09257,6.05 -7.21189,13.66401 -9.1875,16.9375 -1.97562,3.27348 -3.42097,6.14154 -3.1875,6.375 0.61326,0.61327 21.91302,-18.37444 24.78125,-22.09375 1.07115,-1.38899 1.41856,-2.93844 2.375,-3.34375 0.90546,-0.3837 2.39938,0.33753 4.09375,0.4375 3.02372,0.17841 4.76072,-0.33993 6.90625,-2.125 2.86667,-2.38504 11.37773,-8.34375 12.5,-8.34375 1.45169,0 -8.941,10.95366 -13.8125,14.53125 -1.89578,1.39223 -4.46498,2.6285 -5.8125,4.1875 -1.42625,1.65009 -3.49,6.23396 -3,8.96875 0.4734,2.64215 1.22938,2.35926 1.09375,3.21875 -4.87422,4.15294 -10.39979,8.62592 -14.71875,12.84375 0,0 -6.11445,4.78649 -7.34375,8.40625 -0.55759,1.64186 -0.0937,4.84375 -0.0937,4.84375 0.78746,5.93618 2.36742,9.27483 6.625,9.03125 6.02778,-0.14577 5.08724,-1.43777 10.25,-7.1875 2.35812,-2.82108 3.5539,-5.37361 4.90625,-5.4375 0.88999,-0.0421 1.42414,1.95033 1.28125,3.3125 -0.59467,5.66889 -1.45008,6.0124 -5.65625,8.1875 -2.40058,1.72141 -7.6892,2.11175 -9.34375,4.4375 -1.05701,1.69256 -0.50775,2.12057 2,7.03125 1.62312,3.1784 3.09165,6.10396 3.28125,6.5 0.57963,1.21077 -5.57502,4.41484 -12.875,6.71875 -6.19692,1.95578 -6.9375,2.45772 -6.9375,4.75 0,3.48511 3.73906,9.24208 6.71875,10.375 5.22823,1.98776 7.07102,1.19392 11.53125,-4.90625 4.3943,-6.00999 10.76017,-12.15625 12.5625,-12.15625 0.56328,0 1.30887,2.1375 1.65625,4.75 0.92717,6.97291 1.97887,33.34376 1.125,34.6875 -0.53552,0.84275 -2.93439,-1.14081 -6.59375,-2.53125 -3.54178,-0.72189 -9.39273,-2.43603 -14.09375,-2.03125 6.19994,2.80534 16.45639,8.58559 19.125,14.6875 0.58782,1.54607 2.29194,2.75114 5,3.5625 3.76542,1.12814 4.25725,1.02564 6.28125,-1 2.09706,-2.09876 2.1875,-2.98589 2.1875,-19.375 0,-8.41344 -0.8554,-16.10867 -0.5625,-18.375 5.45935,-0.95722 10.06119,2.38551 11.5,4.59375 2.5448,4.11758 3.0647,8.42036 1.40625,14.34375 -1.13596,4.05724 -2.73666,7.69868 -3.625,10 0.27163,-0.21576 3.13372,-4.13085 4.1875,-4.25 1.01721,-0.11502 -0.9495,4.97275 -0.53125,5.15625 0.50074,0.21969 4.01703,-3.70673 4.5625,-3.59375 0.80259,0.16623 -1.4375,4.34395 -1.4375,4.59375 0,0.24167 -1.98482,3.76195 -1.84375,3.875 0.2863,0.22943 3.24379,-4.08581 4.3125,-5 0.62489,-0.53454 -2.4242,5.47458 -2.28125,5.75 0.16424,0.31647 3.49452,-5.08095 3.875,-5.40625 2.15252,-1.84038 10.86614,-8.09553 15.125,-9.875 8.65012,-3.61425 6.63654,-17.28913 -3.71875,-25.1875 -4.11566,-3.13916 -14.09052,-3.38378 -18.84375,-0.46875 -2.96649,1.40377 -8.6871,4.02612 -13.3125,4.28125 -0.26866,-1.52763 -0.3139,-7.19377 -0.78125,-12.53125 -0.74698,-8.53094 0.0356,-9.65625 6.78125,-9.65625 3.77919,0 5.63143,0.54572 7.3125,2.125 2.80791,2.63789 10.64976,3.70585 12.96875,1.78125 2.36933,-1.96637 1.24533,-8.54149 -2.03125,-11.8125 -2.25866,-2.25483 -3.40666,-2.597 -8.625,-2.5 -4.58819,0.0853 -6.53066,0.61199 -8.21875,2.1875 -1.21641,1.13529 -3.56875,2.36739 -5.21875,2.71875 -2.95789,0.62985 -2.92585,0.57285 1.5,-3.53125 5.66873,-5.25663 8.77122,-6.85451 14.75,-7.59375 3.42417,-0.42338 7.25179,-2.00249 7.4706,-8.44968 0.21881,-6.4472 -2.38213,-8.54281 -3.2206,-9.30032 -3.00616,-2.71589 -4.88079,-3.625 -7.53125,-3.625 -4.5391,0 -9.43853,2.06352 -12.75,5.375 -1.44115,1.44115 -3.89569,3.86244 -4.91069,3.86244 -1.84199,0 -5.39905,-2.74639 -5.39905,-4.09727 0,-0.75266 15.28309,-9.43815 22.15349,-12.92142 3.62373,-1.83721 7.50613,-2.91963 10.125,-2.96875 1.1904,-0.0223 2.13485,0.16103 2.65625,0.59375 0.95168,0.78982 1.09307,2.62454 0.5625,6.875 -0.39736,3.18332 -0.76609,6.85475 -0.8125,8.15625 -0.0288,0.80876 -0.0512,1.77008 0.2547,6.60875 z m -16,-38.0625 c 1.26245,-0.0305 5.46882,1.1055 4.90625,1.3125 -6.12304,3.04168 -41.6689,21.2885 -41.75,19.5 -0.17583,-3.87767 6.69213,-9.5592 9.5625,-10.90625 0.81453,-0.38226 2.20828,0.13627 3.0625,0.0625 3.37392,-0.26834 4.26569,-0.6812 8.03125,-3.53125 5.0337,-3.80986 10.02065,-6.28848 16.1875,-6.4375 z m -9.8125,28.5 c 1.86058,0 1.60862,2.46923 -0.71875,7.03125 -1.11118,2.17809 -4.09234,6.44362 -4.35616,6.44362 -0.26383,0 -0.14644,-4.33398 -0.14644,-6.69898 0,-4.33543 2.82716,-6.77589 5.22135,-6.77589 z m -1.40625,13.53125 c 0.7071,-0.0884 0.52053,1.27995 0.34375,2.03125 -0.17678,0.7513 -3.53125,5.25 -3.53125,5.25 -0.44194,-0.22097 -0.2759,-3.18842 -0.1875,-3.71875 0.0884,-0.53033 2.66789,-3.4741 3.375,-3.5625 z m -14.71875,4.25 C 395.71606,407.29651 396,407.5625 396,407.5625 l 0.1875,6.25 c 0,0 -1,0.375 -1.5,-0.5 -0.5,-0.875 -0.6875,-5 -0.0625,-5.6875 0.23438,-0.25781 0.49536,-0.35291 0.71875,-0.34375 z m -8.46875,41.625 c -2.38841,0.78989 -4.86045,2.51922 -6.71875,3.3125 -1.18919,0.49687 -7.25569,3.91774 -8.03125,3.84375 -0.52342,-0.0499 3.41572,-3.8125 3.0625,-3.8125 -0.87658,0 -5.96199,2.90753 -10.125,4.9375 -5.95072,2.9017 -7.85803,4.36626 -8.90625,6.875 -1.39779,3.34539 -0.64593,8.21963 1.6875,11.03125 1.2107,1.4588 5.54744,1.86629 8.375,0.78125 0.89815,-0.34465 3.15554,-3.61864 5,-7.28125 1.84446,-3.6626 5.46489,-9.04833 8.0625,-11.9375 2.59762,-2.88918 7.94391,-7.86581 7.59375,-7.75 z m 68.125,32 c -1.53989,0.0463 -2.925,0.21481 -3.75,0.46875 -5.92632,1.82413 -16.96345,7.38131 -23.34375,11.75 -3.96289,2.71345 -7.10216,4.21561 -8.0625,3.84375 -4.08957,-1.58354 -7.20566,-1.6283 -9.5,-0.125 -3.80935,2.49599 -4.0673,5.1257 -1.09375,10.8125 3.16155,6.04636 2.73957,7.84375 -1.78125,7.84375 -3.54952,0 -7.71875,2.97951 -7.71875,5.53125 0,0.80957 0.94094,3.485 2.09375,5.9375 1.55359,3.30512 2.97695,4.77515 5.5,5.6875 1.34378,0.48592 2.27281,0.81184 3.875,0.71875 3.81812,-0.22183 9.04748,-9.83178 9.34375,-9.84375 1.84398,-0.0745 0.81643,4.29141 -2.71875,8.28125 C 413.55807,536.64937 409.27529,536 408.5,536 c -2.19497,0 -5.71275,4.77382 -5.71875,7.84375 -0.002,1.01325 0.86875,2.97658 1.96875,4.375 2.30903,2.93546 2.5356,7.59787 0.96875,20.09375 -0.8844,7.05316 -0.78427,8.74894 0.625,11.71875 0.90662,1.91057 1.93142,3.46575 2.28125,3.46875 0.34983,0.003 1.41779,1.98353 5.21875,3.25 3.82858,1.27569 16.12452,-5.8347 20.03125,-6.0625 0.29699,-0.0173 0.56822,-0.01 0.78125,0.0312 0.87353,0.16823 2.16542,1.51953 2.875,3 0.70957,1.48048 2.97377,4.03595 5,5.71875 0,0 2.06613,2.487 3.53125,2.9375 3.52916,1.08514 6.43513,-1.46562 8.34375,-2.71875 0,0 2.33981,-1.06341 2.71875,-2.15625 0.55974,-1.61426 0.096,-5.57975 0.0312,-6.84375 -0.0854,-1.66692 -1.29983,-2.43689 -1.375,-3.53125 -0.33746,-4.91272 -0.79711,-12.87847 -0.75,-20.75 0.092,-15.37482 1.50788,-18.0121 3.46875,-23.59375 2.61904,-7.45514 2.21476,-10.22682 -2.90625,-12.875 -2.52115,-1.30374 -4.83745,-1.55089 -10.46875,-1.125 -3.77406,0.28543 -6.90198,2.67801 -8.15625,2.3125 -0.64065,-0.18669 -0.98238,-2.41472 -1.3125,-2.8125 -0.46156,-0.55615 -2.28871,-1.66293 -1.875,-1.9375 4.31769,-2.86559 11.17139,-4.00173 16.65625,-4.21875 3.69282,-0.10277 4.62083,0.36352 8.09375,4.125 3.38358,3.66472 4.48098,4.25 8,4.25 3.21773,0 4.5221,-0.54752 6.15625,-2.625 3.34281,-4.24969 1.23775,-10.10378 -1.65625,-12.5625 -1.83922,-1.56259 -4.61593,-1.15338 -4.0625,-2.09375 2.75125,-4.67483 4.03611,-6.04658 4.5,-9.75 0.541,-4.56794 0.35443,-5.11432 -2.8125,-8.28125 -2.73183,-2.73183 -4.47626,-3.52416 -8.90625,-4.0625 -1.51138,-0.18365 -3.21011,-0.26505 -4.75,-0.21875 z m -13,8.71875 c 0.87158,-0.0183 1.57812,0.125 1.8125,0.5 0.625,1 -9.875,16.25 -11.5625,17.5 -1.6875,1.25 -5.62458,3.44424 -6.5625,3.5 -0.37993,0.0226 -1.4375,-5.375 -0.4375,-7.75 1,-2.375 10.3125,-12.25 12.1875,-12.875 1.17188,-0.39062 3.10986,-0.84448 4.5625,-0.875 z m -70,12.3125 c -3.47124,0.0978 -6.17753,1.50228 -6.875,4.28125 -0.73917,2.94507 2.87725,11.25225 6.46875,14.84375 2.88264,2.88264 2.44164,2.84119 9.0625,0.875 4.40808,-1.30906 5.49435,-2.11314 6.6875,-4.96875 1.97308,-4.72223 1.76987,-6.79768 -0.84375,-9.1875 -4.32907,-3.95838 -10.03699,-5.96948 -14.5,-5.84375 z m 18.75,20.625 c -0.34539,-0.002 -0.69878,0.0131 -1.0625,0.0312 -4.84967,0.24402 -11.34392,2.23947 -19.03125,5.875 -5.11314,2.41813 -6.96021,2.79466 -11.03125,2.3125 -9.29439,-1.10078 -11.66219,4.91188 -4.96875,12.65625 3.30416,3.82294 4.36706,4.43255 7.5,4.34375 4.79338,-0.13588 8.12941,-2.42074 10.625,-7.3125 1.11825,-2.19196 2.46118,-3.96875 3,-3.96875 0.53883,0 0.96875,0.21667 0.96875,0.5 0,1.80297 -7.02293,12.46775 -11.09375,16.8125 -2.67407,2.85401 -4.87,5.75 -4.875,6.4375 -0.0163,2.47506 3.92052,5.25 7.46875,5.25 1.35842,0 2.76121,-0.61232 3.46875,-0.3125 0.58323,0.24714 0.59375,1.35322 0.59375,1.84375 0,2.9241 -5.70718,11.65546 -9.875,15.8125 -2.03074,2.02549 -4.31369,4.34161 -4.78125,4.46875 -1.73983,0.47311 -4.15982,0.46177 -7.90625,1.0625 -4.675,0.74964 -10.01917,1.3282 -11.90625,1.25 -4.07107,-0.16859 -9.09375,3.96487 -9.09375,7.5 0,3.12337 5.86953,7.64193 12.65625,9.78125 l 5.59375,1.7813 4.125,-3.15625 c 7.27203,-5.53135 11.25472,-6.78707 25.59375,-8.09375 31.85255,-2.90264 62.81669,2.72516 89.1875,16.21875 5.69882,2.916 11.24375,5.60379 12.34375,5.96875 3.51641,1.16666 6.04886,0.91084 12.09375,-1.21875 4.29781,-1.5141 10.2641,-2.34686 21.90625,-3.0625 8.8,-0.54093 17.575,-1.59141 19.5,-2.34375 1.925,-0.75234 7.77464,-2.68665 12.96875,-4.28125 5.19412,-1.5946 9.61019,-3.45557 9.84375,-4.15625 0.32387,-0.97162 -0.33717,-0.43371 -2.90625,0.21875 -1.85267,0.47051 -6.50048,1.06737 -10.34375,0.96875 -1.93914,-0.0498 -11.16785,-0.094 -11.4375,-0.4375 -0.26287,-0.33478 8.37191,-1.91373 7.46875,-2.15625 -1.15199,-0.30934 -6.3071,0.28317 -7.03125,-0.625 -0.38597,-0.48406 7.17901,-2.34382 6.71875,-2.375 -2.64648,-0.1793 -10.17606,-0.27216 -25.96875,-0.90625 -22.84196,-0.91714 -19.55756,-0.77491 -37.71875,-2 -13.0003,-0.87696 -19.87619,-2.09627 -27.59375,-3.53125 -7.71755,-1.43498 -27.45219,-4.34556 -43.75,-4.28125 -16.2978,0.0643 -32.6875,-1.01364 -32.6875,-1.8125 0,-0.25143 5.89008,-4.52195 8.875,-7.25 8.61913,-7.8774 11.55969,-16.14136 8.09375,-22.84375 -1.63341,-3.15865 -3.31012,-3.77181 -8.90625,-3.625 -2.35439,0.0618 -7.84559,0.71691 -8.09375,0.46875 -0.85042,-0.85042 18.554,-16.70607 22.96875,-18.78125 6.62356,-3.11343 8.6254,-8.48849 4.28125,-11.53125 -1.40105,-0.98133 -3.36352,-1.48826 -5.78125,-1.5 z m 48.375,4.25 c 1.98874,-0.0884 2.98483,1.66345 3.25,2.8125 0.26516,1.14904 1.28921,4.90273 -0.125,5.875 -1.41422,0.97227 -6.3145,0.84743 -10.46875,2.96875 -4.15425,2.12132 -11.52865,7.17678 -13.03125,7 -0.97228,-0.26517 -1.4303,-3.9876 -0.28125,-5.84375 1.14905,-1.85616 18.66751,-12.72411 20.65625,-12.8125 z m 1.96875,19.96875 c 1.06066,-0.0884 0.53578,5.13573 0.0937,5.3125 -0.44195,0.17678 -4.19914,0.39644 -4.90625,0.75 -0.7071,0.35355 -4.27895,1.99888 -4.6875,1.15625 -0.5072,-1.0461 8.43934,-7.13036 9.5,-7.21875 z m -20.90625,4.875 c 1.21849,0.005 3.73426,0.89655 3.53125,2.25 -0.26517,1.76776 -3.83931,4.01517 -4.28125,3.75 -0.44194,-0.26516 -0.55785,-5.67164 0.3125,-5.96875 0.10879,-0.0371 0.26343,-0.0321 0.4375,-0.0312 z m 18.71875,9.4375 c 0.36454,-0.0164 0.6257,0.0722 0.75,0.3125 1.32583,2.56326 0.91069,6.9902 0.46875,7.34375 -0.44195,0.35355 -6.27015,1.41253 -7.375,2.03125 -1.10486,0.61872 -7.39125,2.78125 -10.75,2.78125 -0.16021,-1.24158 13.38239,-12.31039 16.90625,-12.46875 z m -17.75,5.53125 c 0.7734,-0.0331 1.51831,0.029 1.5625,0.25 0.0884,0.44195 -2.87056,2.92456 -3.3125,2.96875 0,0 -0.35355,-2.52144 0,-2.875 0.17678,-0.17678 0.9766,-0.3106 1.75,-0.34375 z"
         transform="translate(56.646581,21.015832)"
         id="path3029"
         inkscape:connector-curvature="0"
         sodipodi:nodetypes="ccscscsscccssssssssssssssscccssssssssscsssscsssssssssssssssssscsssssccssssscscscccsssscccssssssssscssssssssccsssscssscssssssssccsccccsccsssscsssscccsssccscsssssscsssccsssssssssscsssssscsssccscsscssssssssscsscccscccccssssssscsssssssssssssscsssssccscscscsssssssscssssscscscsscsscsssssssccsssssssscsssssscscccsssssssssccsssssssssscssscsssscssscssscscccccssccccccc" />
    </g>
  </g>
</svg>
