<?xml version="1.0" encoding="UTF-8" standalone="no"?>
<!-- Created with Inkscape (http://www.inkscape.org/) -->

<svg
   xmlns:dc="http://purl.org/dc/elements/1.1/"
   xmlns:cc="http://creativecommons.org/ns#"
   xmlns:rdf="http://www.w3.org/1999/02/22-rdf-syntax-ns#"
   xmlns:svg="http://www.w3.org/2000/svg"
   xmlns="http://www.w3.org/2000/svg"
   xmlns:sodipodi="http://sodipodi.sourceforge.net/DTD/sodipodi-0.dtd"
   xmlns:inkscape="http://www.inkscape.org/namespaces/inkscape"
   id="svg3036"
   version="1.1"
   inkscape:version="0.48.4 r9939"
   width="854.72522"
   height="854.20203"
   sodipodi:docname="logo.svg"
   inkscape:export-filename="/home/kluck/Images/favicon.png"
   inkscape:export-xdpi="3.3715677"
   inkscape:export-ydpi="3.3715677">
  <metadata
     id="metadata3042">
    <rdf:RDF>
      <cc:Work
         rdf:about="">
        <dc:format>image/svg+xml</dc:format>
        <dc:type
           rdf:resource="http://purl.org/dc/dcmitype/StillImage" />
        <dc:title></dc:title>
      </cc:Work>
    </rdf:RDF>
  </metadata>
  <defs
     id="defs3040" />
  <sodipodi:namedview
     pagecolor="#ffffff"
     bordercolor="#666666"
     borderopacity="1"
     objecttolerance="10"
     gridtolerance="10"
     guidetolerance="10"
     inkscape:pageopacity="0"
     inkscape:pageshadow="2"
     inkscape:window-width="1916"
     inkscape:window-height="1178"
     id="namedview3038"
     showgrid="false"
     fit-margin-top="0"
     fit-margin-left="0"
     fit-margin-right="0"
     fit-margin-bottom="0"
     inkscape:zoom="0.66154873"
     inkscape:cx="297.10734"
     inkscape:cy="293.1816"
     inkscape:window-x="0"
     inkscape:window-y="18"
     inkscape:window-maximized="0"
     inkscape:current-layer="layer4" />
  <g
     inkscape:groupmode="layer"
     id="layer3"
     inkscape:label="base">
    <path
       style="font-size:medium;font-style:normal;font-variant:normal;font-weight:normal;font-stretch:normal;text-indent:0;text-align:start;text-decoration:none;line-height:normal;letter-spacing:normal;word-spacing:normal;text-transform:none;direction:ltr;block-progression:tb;writing-mode:lr-tb;text-anchor:start;baseline-shift:baseline;color:#000000;fill:#000000;fill-opacity:1;stroke:none;stroke-width:53.17766952999999575;marker:none;visibility:visible;display:inline;overflow:visible;enable-background:accumulate;font-family:Sans;-inkscape-font-specification:Sans"
       d="M 172.3279,241.78568 C 278.98941,98.477888 392.95438,36.930831 653.96587,135.48531 692.58817,150.06858 748.69747,86.467499 730.54986,76.1927 562.07117,-19.196432 344.95276,-22.744532 215.49636,52.816832 79.763814,132.04147 -0.26872624,288.85717 6.7376029e-4,443.94727 0.49357376,727.66309 274.39232,891.66553 534.2867,846.88456 803.99223,796.41116 962.46445,452.11881 769.26705,214.48882 c 2.94711,8.49801 3.2613,13.7699 3.2613,13.7699 0,0 -8.01862,-14.32243 -18.11674,-24.36926 5.25253,10.8084 4.64207,15.65677 4.64207,15.65677 0,0 -5.03669,-7.3724 -15.80316,-15.75644 C 906.44016,411.35936 778.53109,687.76791 621.6624,762.74429 257.21655,921.84125 -22.210786,503.16315 172.3279,241.78568 z"
       id="path3071"
       inkscape:connector-curvature="0"
       sodipodi:nodetypes="ssssscccccccs"
       inkscape:export-filename="/home/kluck/Images/logo.png"
       inkscape:export-xdpi="3.1608448"
       inkscape:export-ydpi="3.1608448" />
  </g>
  <g
     inkscape:groupmode="layer"
     id="layer5"
     inkscape:label="logo_centré"
     style="display:inline">
    <path
       style="fill:#000000;stroke:none"
       d="m 483.73106,160.85895 c -34.09903,48.26736 -88.10783,95.01098 -130.30356,114.43591 -38.02253,12.74853 -64.03642,16.57089 -101.81826,22.94588 71.66106,-52.60128 163.65722,-125.76029 217.5922,-179.36871 2.18001,-1.37671 23.20742,24.20791 14.52962,41.98692 z"
       id="path3046"
       inkscape:connector-curvature="0"
       sodipodi:nodetypes="ccccc" />
    <path
       style="fill:#000000;stroke:none"
       d="m 342.27615,734.82003 c -16.64395,22.034 -66.36803,-55.89394 -126.60154,-126.94138 -12.81252,-15.1128 -25.88293,-21.66676 -25.90093,-31.38584 -0.10133,-54.69011 69.9734,-141.4267 105.95067,-169.34742 57.37857,-44.20447 99.75402,-39.14984 113.95214,-23.24863 18.66526,20.90419 7.27673,48.50777 -7.95748,65.03495 -21.87194,21.89877 -64.23931,57.83284 -90.13199,75.56777 -7.26499,8.20467 -32.00701,26.95435 -26.56626,33.73489 42.38925,-12.05898 86.97748,-64.71651 133.60503,-63.29791 27.82656,7.46149 42.3683,43.48583 74.17597,34.45588 53.24843,-10.23487 141.78969,-23.15268 169.58481,-13.55539 28.7896,9.94069 54.47105,32.18049 66.27727,50.94507 25.41684,40.39705 4.15038,72.2899 -37.60649,78.1396 -34.09432,4.77624 -60.49429,7.38419 -89.01719,9.13215 -72.03753,4.41465 -92.59825,31.2925 -131.93078,69.8405 33.31771,-53.62736 74.14015,-68.95224 120.10757,-102.50898 47.798,-34.89307 60.07123,-37.24216 56.48188,-43.83272 -15.24104,-27.98466 -53.96113,-16.3931 -87.1266,-6.91978 -26.52326,7.57604 -70.86325,51.65058 -99.49446,27.72391 -21.95625,-18.34849 -51.03903,-68.57399 -65.25652,-68.79566 -49.02615,-0.76441 -144.56095,82.85884 -132.35438,42.23562 9.0607,-30.15376 115.05267,-114.14501 104.46244,-132.80441 -15.48702,-20.16732 -99.98357,61.58709 -143.39352,143.59587 -4.74757,8.96897 27.56379,42.60388 29.51131,44.21442 17.60087,14.55551 17.85646,16.37332 43.34865,33.80219 5.03732,-20.84859 44.25941,-226.95112 26.29279,-339.78236 30.02376,43.22572 58.54508,281.08857 19.58761,413.99766 z"
       id="path3051"
       inkscape:connector-curvature="0"
       sodipodi:nodetypes="csscscccccsssscsssssscssccc" />
  </g>
  <g
     inkscape:groupmode="layer"
     id="layer4"
     inkscape:label="logo_texte"
     style="display:none">
    <text
       xml:space="preserve"
       style="font-size:75.17102051px;font-style:normal;font-variant:normal;font-weight:normal;font-stretch:normal;text-align:start;line-height:125%;letter-spacing:3.73975706px;word-spacing:0px;writing-mode:lr-tb;text-anchor:start;fill:#000000;fill-opacity:1;stroke:none;font-family:Colors Of Autumn;-inkscape-font-specification:Colors Of Autumn"
       x="445.03564"
       y="250.33475"
       id="text3061"
       sodipodi:linespacing="125%"><tspan
         sodipodi:role="line"
         id="tspan3063"
         x="445.03564"
         y="250.33475"
         style="font-weight:normal;writing-mode:lr-tb;fill:#000000;-inkscape-font-specification:Colors Of Autumn">Aikido</tspan><tspan
         sodipodi:role="line"
         x="445.03564"
         y="344.29852"
         id="tspan3067"
         style="font-weight:normal;writing-mode:lr-tb;fill:#000000;-inkscape-font-specification:Colors Of Autumn">Vernon</tspan><tspan
         sodipodi:role="line"
         x="445.03564"
         y="438.2623"
         id="tspan3065"
         style="font-weight:normal;writing-mode:lr-tb;fill:#000000;-inkscape-font-specification:Colors Of Autumn">FFAAA</tspan></text>
    <g
       transform="translate(-26.342888,-12.882639)"
       style="display:inline"
       id="g4106">
      <path
         sodipodi:nodetypes="ccccc"
         inkscape:connector-curvature="0"
         id="path3046-1"
         d="m 483.73106,160.85895 c -34.09903,48.26736 -88.10783,95.01098 -130.30356,114.43591 -38.02253,12.74853 -64.03642,16.57089 -101.81826,22.94588 71.66106,-52.60128 163.65722,-125.76029 217.5922,-179.36871 2.18001,-1.37671 23.20742,24.20791 14.52962,41.98692 z"
         style="fill:#000000;stroke:none" />
      <path
         sodipodi:nodetypes="csscscccccsssscsssssscssccc"
         inkscape:connector-curvature="0"
         id="path3051-9"
         d="m 342.27615,734.82003 c -16.64395,22.034 -66.36803,-55.89394 -126.60154,-126.94138 -12.81252,-15.1128 -25.88293,-21.66676 -25.90093,-31.38584 -0.10133,-54.69011 69.9734,-141.4267 105.95067,-169.34742 57.37857,-44.20447 99.75402,-39.14984 113.95214,-23.24863 18.66526,20.90419 7.27673,48.50777 -7.95748,65.03495 -21.87194,21.89877 -64.23931,57.83284 -90.13199,75.56777 -7.26499,8.20467 -32.00701,26.95435 -26.56626,33.73489 42.38925,-12.05898 86.97748,-64.71651 133.60503,-63.29791 27.82656,7.46149 42.3683,43.48583 74.17597,34.45588 53.24843,-10.23487 141.78969,-23.15268 169.58481,-13.55539 28.7896,9.94069 54.47105,32.18049 66.27727,50.94507 25.41684,40.39705 4.15038,72.2899 -37.60649,78.1396 -34.09432,4.77624 -60.49429,7.38419 -89.01719,9.13215 -72.03753,4.41465 -92.59825,31.2925 -131.93078,69.8405 33.31771,-53.62736 74.14015,-68.95224 120.10757,-102.50898 47.798,-34.89307 60.07123,-37.24216 56.48188,-43.83272 -15.24104,-27.98466 -53.96113,-16.3931 -87.1266,-6.91978 -26.52326,7.57604 -70.86325,51.65058 -99.49446,27.72391 -21.95625,-18.34849 -51.03903,-68.57399 -65.25652,-68.79566 -49.02615,-0.76441 -144.56095,82.85884 -132.35438,42.23562 9.0607,-30.15376 115.05267,-114.14501 104.46244,-132.80441 -15.48702,-20.16732 -99.98357,61.58709 -143.39352,143.59587 -4.74757,8.96897 27.56379,42.60388 29.51131,44.21442 17.60087,14.55551 17.85646,16.37332 43.34865,33.80219 5.03732,-20.84859 44.25941,-226.95112 26.29279,-339.78236 30.02376,43.22572 58.54508,281.08857 19.58761,413.99766 z"
         style="fill:#000000;stroke:none" />
    </g>
  </g>
</svg>
